<?xml version="1.0" encoding="UTF-8"?>
<svg version="1.1" xmlns="http://www.w3.org/2000/svg" width="1024" height="1024">
<path d="M0 0 C1.13199136 -0.00175304 2.26398272 -0.00350607 3.43027684 -0.00531223 C7.22099676 -0.00996176 11.01167814 -0.00750941 14.80239964 -0.00507832 C17.54873189 -0.0063954 20.29506218 -0.0092079 23.04139334 -0.01194364 C29.01144966 -0.01708789 34.98149788 -0.01851653 40.95155621 -0.01748753 C49.82978348 -0.01596102 58.70800179 -0.02012791 67.58622732 -0.02536215 C84.36788119 -0.03502958 101.14953201 -0.03784618 117.93118834 -0.03841921 C130.89417526 -0.03887895 143.85716098 -0.0409383 156.82014751 -0.04411983 C160.55307772 -0.0450174 164.28600792 -0.04590721 168.01893812 -0.04679471 C168.94699484 -0.04701576 169.87505157 -0.04723681 170.83123122 -0.04746456 C196.93438525 -0.05361837 223.03753887 -0.05756517 249.14069366 -0.05712128 C250.12472215 -0.0571057 251.10875063 -0.05709012 252.12259816 -0.05707407 C257.10991697 -0.05699096 262.09723579 -0.05689192 267.08455461 -0.05678936 C268.57026652 -0.05675944 268.57026652 -0.05675944 270.08599282 -0.05672892 C272.08897509 -0.05668848 274.09195737 -0.05664669 276.09493965 -0.05660353 C307.24617467 -0.05599101 338.39739881 -0.06349323 369.54863071 -0.07717609 C404.5590381 -0.09254778 439.56943833 -0.10114164 474.5798493 -0.10021287 C478.3156087 -0.10013824 482.0513681 -0.10008954 485.78712749 -0.10005856 C486.70694282 -0.1000469 487.62675815 -0.10003525 488.57444668 -0.10002324 C503.35635525 -0.09999251 518.13825434 -0.10636983 532.9201601 -0.11499082 C547.78666598 -0.12348158 562.65315803 -0.12444615 577.519665 -0.1178815 C586.34288827 -0.11419513 595.16606948 -0.11599081 603.98928826 -0.12582384 C609.89449799 -0.13184675 615.79967742 -0.13050283 621.70488578 -0.12335334 C625.06195382 -0.11949118 628.41887511 -0.11976354 631.77594756 -0.12681069 C649.97935118 -0.16247626 668.18575718 -0.16555761 685.84330845 4.81613445 C686.80011509 5.07813641 687.75692173 5.34013836 688.74272251 5.61007977 C720.6014017 14.52461603 749.43214773 29.76502022 773.61674595 52.55050945 C775.56659895 54.35289458 777.5044722 56.05692911 779.55424595 57.7341032 C783.29793646 60.87777756 786.26375895 64.40056778 789.40580845 68.12863445 C790.15862095 68.98199383 790.91143345 69.8353532 791.68705845 70.71457195 C798.3323022 78.39024907 803.86098208 86.56752235 809.19975376 95.1950407 C810.20946395 96.81384732 811.25293724 98.41152908 812.30424595 100.00363445 C826.21359916 121.94514938 834.76177614 150.47950906 834.66307735 176.43464947 C834.66658343 177.61930013 834.6700895 178.80395079 834.67370182 180.02449995 C834.68136281 183.2911915 834.68018458 186.55773688 834.67514628 189.82442892 C834.67186096 193.38669202 834.68017766 196.94893199 834.68696463 200.51118755 C834.69724475 206.74766526 834.70011189 212.98411193 834.69805241 219.22059727 C834.69499722 228.49501147 834.70333789 237.76939145 834.71380166 247.04379899 C834.73312821 264.57440666 834.73876939 282.10500263 834.73991577 299.6356197 C834.74083548 313.17683172 834.74495538 326.71803916 834.75131702 340.25924969 C834.75311217 344.15958627 834.75489179 348.05992285 834.75666678 351.96025944 C834.75710888 352.92994884 834.75755097 353.89963825 834.75800647 354.89871218 C834.77031248 382.16931206 834.77820784 409.43991034 834.77731991 436.71051311 C834.77728875 437.73837015 834.77725759 438.76622719 834.77722549 439.82523142 C834.77705928 445.0346171 834.7768612 450.24400277 834.77665608 455.45338845 C834.77659624 457.00523884 834.77659624 457.00523884 834.7765352 458.58843973 C834.77645432 460.68058643 834.77637073 462.77273312 834.77628441 464.86487982 C834.77505925 497.40610367 834.79006671 529.94728582 834.81742954 562.48849773 C834.84817325 599.06531599 834.86536064 635.64210684 834.8635031 672.21893883 C834.86335384 676.12179025 834.86325643 680.02464167 834.86319447 683.9274931 C834.8631595 685.36891723 834.8631595 685.36891723 834.86312383 686.83946104 C834.86306237 702.28125531 834.87581597 717.72301329 834.89305899 733.16479679 C834.91004081 748.69425069 834.91196941 764.22365169 834.89884035 779.75310975 C834.89146801 788.96943284 834.89505764 798.18559485 834.91472503 807.40190076 C834.92677189 813.57034584 834.92408201 819.73867493 834.90978404 825.90711481 C834.90206044 829.41372195 834.90035356 832.92001861 834.91669874 836.4266032 C834.98872666 855.62389217 833.58418634 873.54181716 827.15580845 891.75363445 C826.85771275 892.6164201 826.55961704 893.47920574 826.25248814 894.36813641 C813.91882858 929.29109196 791.73778366 960.39066917 762.40580845 983.12863445 C761.85827915 983.55789227 761.31074986 983.98715008 760.74662876 984.4294157 C750.87730377 992.12095029 740.51964666 998.39825945 729.40580845 1004.12863445 C728.7720731 1004.45847332 728.13833775 1004.78831219 727.48539829 1005.12814617 C710.13761447 1014.04200877 691.36398445 1018.96052483 672.40580845 1023.12863445 C672.40580845 1023.45863445 672.40580845 1023.78863445 672.40580845 1024.12863445 C605.72642861 1024.16290004 539.04704773 1024.19470083 472.36766148 1024.21332073 C471.38139742 1024.21359685 470.39513337 1024.21387296 469.37898253 1024.21415744 C447.94681532 1024.22014271 426.51464801 1024.22568316 405.08248056 1024.23076511 C394.57274348 1024.23325987 384.06300643 1024.23585297 373.55326939 1024.23849773 C372.50740254 1024.23875925 371.46153569 1024.23902077 370.3839759 1024.23929021 C336.46066486 1024.24781883 302.53736046 1024.26284585 268.61405345 1024.28122889 C233.76476879 1024.3000795 198.91548781 1024.31240195 164.06619814 1024.31646443 C159.14837282 1024.31704078 154.23054751 1024.31769205 149.31272221 1024.31838894 C148.34478656 1024.31852378 147.37685092 1024.31865863 146.37958389 1024.31879756 C130.77404926 1024.32116458 115.16852599 1024.33045032 99.562996 1024.34229852 C83.88898168 1024.35405196 68.21497867 1024.3585757 52.5409601 1024.35563721 C43.21917524 1024.35411156 33.89743161 1024.35821147 24.57565416 1024.37022954 C18.35691115 1024.37770206 12.13819527 1024.37798108 5.91945042 1024.37229808 C2.37084433 1024.36926447 -1.17768352 1024.36946534 -4.72628137 1024.37840082 C-8.54083693 1024.38793348 -12.35527842 1024.3821494 -16.16984081 1024.37473011 C-17.28237457 1024.37998414 -18.39490832 1024.38523816 -19.54115522 1024.3906514 C-20.55353643 1024.38615682 -21.56591765 1024.38166223 -22.60897708 1024.37703145 C-23.48184465 1024.37734341 -24.35471223 1024.37765537 -25.25403033 1024.37797678 C-27.80611875 1024.10605378 -29.35948125 1023.34934431 -31.59419155 1022.12863445 C-34.00844173 1021.54528692 -36.41466596 1021.01281133 -38.84419155 1020.50363445 C-69.13002007 1013.69015598 -98.24600427 1000.8783328 -121.59419155 980.12863445 C-122.37149624 979.45961102 -123.14880093 978.79058758 -123.9496603 978.1012907 C-126.54742214 975.82560048 -129.0773634 973.49367634 -131.59419155 971.12863445 C-132.15122768 970.60559734 -132.70826382 970.08256023 -133.28217983 969.54367352 C-159.40624103 944.80343594 -177.2933384 913.90141037 -186.59419155 879.12863445 C-186.98154308 877.84597275 -186.98154308 877.84597275 -187.37671989 876.5373987 C-190.62163312 864.19990569 -190.02721395 851.56082789 -189.9981983 838.89866018 C-189.99326098 835.29335702 -190.00575298 831.68810482 -190.01592582 828.08281839 C-190.0313313 821.77376657 -190.0356493 815.46478376 -190.03255749 809.15571499 C-190.02797082 799.77319995 -190.04049429 790.39076091 -190.05618136 781.00826068 C-190.08515781 763.2720866 -190.09363248 745.53593858 -190.09535254 727.79974361 C-190.09673263 714.09795149 -190.10291529 700.39616956 -190.11245441 686.69438076 C-190.11514718 682.74632626 -190.11781662 678.79827174 -190.12047905 674.85021722 C-190.12114219 673.86863304 -190.12180534 672.88704885 -190.12248858 671.87571968 C-190.14094549 644.27360704 -190.15279087 616.67149794 -190.15145874 589.06937885 C-190.15138864 587.50912404 -190.15138864 587.50912404 -190.15131712 585.91734892 C-190.1510678 580.6456878 -190.15077068 575.37402669 -190.15046299 570.10236557 C-190.15040316 569.05545166 -190.15034332 568.00853775 -190.15028167 566.92989917 C-190.15016036 564.81278374 -190.15003497 562.69566831 -190.1499055 560.57855288 C-190.14806805 527.65428901 -190.17057431 494.73011789 -190.21162319 461.80588055 C-190.25775623 424.78879023 -190.28351876 387.77176085 -190.28073353 350.75463998 C-190.28050965 346.80344192 -190.28036352 342.85224387 -190.28027058 338.9010458 C-190.28023561 337.92821072 -190.28020065 336.95537564 -190.28016463 335.9530607 C-190.2800725 320.33175943 -190.29918904 304.71053901 -190.32506737 289.08926175 C-190.3505619 273.37400844 -190.35341611 257.65887275 -190.33373941 241.94361015 C-190.32269506 232.62139934 -190.32802205 223.29954706 -190.35756643 213.97737462 C-190.37567403 207.7333125 -190.37156145 201.48950777 -190.35015493 195.24545706 C-190.33859989 191.69886939 -190.33591671 188.15297113 -190.36052699 184.6064343 C-190.48578191 162.16277436 -187.19094215 141.90116821 -178.34419155 121.19113445 C-177.87239468 120.06417156 -177.4005978 118.93720867 -176.91450405 117.77609539 C-156.68284355 70.56437961 -115.58436826 32.43976948 -68.28022671 13.16476727 C-46.44191381 4.74068074 -23.40846234 -0.0463328 0 0 Z " fill="#03183B" transform="translate(189.5941915512085,-0.12863445281982422)"/>

<!-- WhatsApp icon (replaces email envelope) -->
<g transform="translate(168, 348) scale(13.5)">
  <path fill="#FDFDFD" d="M17.472 14.382c-.297-.149-1.758-.867-2.03-.967-.273-.099-.471-.148-.67.15-.197.297-.767.966-.94 1.164-.173.199-.347.223-.644.075-.297-.15-1.255-.463-2.39-1.475-.883-.788-1.48-1.761-1.653-2.059-.173-.297-.018-.458.13-.606.134-.133.298-.347.446-.52.149-.174.198-.298.298-.497.099-.198.05-.371-.025-.52-.075-.149-.669-1.612-.916-2.207-.242-.579-.487-.5-.669-.51-.173-.008-.371-.01-.57-.01-.198 0-.52.074-.792.372-.272.297-1.04 1.016-1.04 2.479 0 1.462 1.065 2.875 1.213 3.074.149.198 2.096 3.2 5.077 4.487.709.306 1.262.489 1.694.625.712.227 1.36.195 1.871.118.571-.085 1.758-.719 2.006-1.413.248-.694.248-1.289.173-1.413-.074-.124-.272-.198-.57-.347m-5.421 7.403h-.004a9.87 9.87 0 01-5.031-1.378l-.361-.214-3.741.982.998-3.648-.235-.374a9.86 9.86 0 01-1.51-5.26c.001-5.45 4.436-9.884 9.888-9.884 2.64 0 5.122 1.03 6.988 2.898a9.825 9.825 0 012.893 6.994c-.003 5.45-4.435 9.884-9.885 9.884m8.413-18.297A11.815 11.815 0 0012.05 0C5.495 0 .16 5.335.157 11.892c0 2.096.547 4.142 1.588 5.945L.057 24l6.305-1.654a11.882 11.882 0 005.683 1.448h.005c6.554 0 11.89-5.335 11.893-11.893a11.821 11.821 0 00-3.48-8.413z"/>
</g>
<path d="M0 0 C14.16142401 11.75423801 21.7711783 26.20653044 23.58984375 44.546875 C24.1907997 60.79672391 18.53770832 76.71318177 8.1875 89.1875 C-3.03888526 100.66551113 -17.87022204 107.71167572 -33.93457031 108.04223633 C-52.82592639 108.18129118 -66.73320871 102.68545965 -80.75 89.86328125 C-85.18336954 85.31734569 -88.2034081 80.36693655 -91.0625 74.75 C-91.39644775 74.09781494 -91.73039551 73.44562988 -92.07446289 72.77368164 C-98.25504712 60.00068624 -99.28323586 42.52394115 -95.0625 29 C-88.243584 12.41601613 -76.0227539 -0.30520891 -59.8515625 -7.9609375 C-39.48151934 -16.25984397 -17.59204773 -12.92725865 0 0 Z " fill="#53EA96" transform="translate(864.6875,467.25)"/>
<path d="M0 0 C11.02577295 9.05072144 20.10956066 23.85076938 21.57983398 38.19238281 C22.43332626 56.71462604 18.35157568 70.94014011 6.41796875 85.546875 C-3.71377912 96.57922268 -18.07836782 103.3321765 -32.96875 104.39453125 C-50.60159874 104.75829252 -65.45512207 99.6161605 -78.4128418 87.5390625 C-89.86796391 76.30477566 -95.62584202 61.52021388 -95.87890625 45.65625 C-95.6088682 29.69223572 -89.97643255 17.12984078 -79.12890625 5.46875 C-77.89140625 4.3240625 -77.89140625 4.3240625 -76.62890625 3.15625 C-76.17644531 2.69863281 -75.72398437 2.24101562 -75.2578125 1.76953125 C-53.82863394 -18.59086035 -22.77340078 -15.97183532 0 0 Z " fill="#53E996" transform="translate(566.62890625,152.84375)"/>
<path d="M0 0 C12.36556922 9.33072677 20.55917917 21.91517825 23.3125 37.18359375 C23.6425 37.51359375 23.9725 37.84359375 24.3125 38.18359375 C25.82960013 57.40659669 21.73155707 72.4306679 9.359375 87.57421875 C-0.96297082 98.81410642 -14.96714811 104.99238976 -30.03125 106.5234375 C-46.32025945 107.01764288 -60.96270872 101.87380175 -73.375 91.37109375 C-85.74315606 79.67148667 -92.57064001 64.71424579 -93.0625 47.68359375 C-92.55081164 31.27020547 -86.36813903 16.65580253 -74.5246582 5.26733398 C-53.36054377 -13.80948643 -23.79262183 -16.08076911 0 0 Z " fill="#53E996" transform="translate(563.6875,774.81640625)"/>
<path d="M0 0 C5.58764355 3.9845551 9.3259155 8.49018461 12.60546875 14.4921875 C12.94578125 15.09417969 13.28609375 15.69617188 13.63671875 16.31640625 C16.85717458 23.18969393 17.27646368 32.2263808 14.98583984 39.44482422 C11.55119993 47.94810098 6.77755093 56.07885746 -1.33203125 60.7421875 C-2.14542969 61.22171875 -2.95882812 61.70125 -3.796875 62.1953125 C-12.35977553 66.47032449 -21.99096752 66.77118347 -31.30859375 64.91015625 C-42.14413254 61.14351658 -50.0710616 51.909922 -55.20703125 41.9921875 C-58.12095298 33.38439573 -57.60422897 22.94170048 -53.7109375 14.76171875 C-48.58876644 5.93091346 -41.89721969 -1.22308413 -32.0703125 -4.67578125 C-20.64544183 -7.26185718 -9.91287419 -6.24203824 0 0 Z " fill="#03183A" transform="translate(848.39453125,485.5078125)"/>
<path d="M0 0 C8.65353594 4.94273147 13.63573089 12.79252665 17 22 C19.20996196 30.79535196 17.96201915 39.86377851 13.51171875 47.71875 C8.3263683 55.54367161 2.53607883 60.67484689 -6.125 64.3125 C-16.07941922 66.07860664 -26.01989054 66.04878718 -35 61 C-44.02880798 54.26989843 -49.73226456 47.10861709 -52 36 C-53.15096627 25.98348276 -50.51900791 17.16413779 -44.6484375 9.03125 C-33.44023445 -4.7798059 -15.75274286 -7.90098509 0 0 Z " fill="#03183A" transform="translate(547,168)"/>
<path d="M0 0 C7.33054911 5.15119667 12.8444964 12.54079785 15 21.3125 C15.22121435 22.72429492 15.41219198 24.14140599 15.5625 25.5625 C15.68625 26.635 15.81 27.7075 15.9375 28.8125 C14.88025179 39.38498207 11.32829769 48.19631454 3.5625 55.5625 C-5.7472723 62.57032547 -14.89989452 64.60155921 -26.4375 63.5625 C-36.33835277 61.59814972 -44.16911002 55.52873074 -49.9375 47.3125 C-54.70114617 38.57914869 -55.85649308 29.19974437 -53.3125 19.5625 C-49.9876179 9.55678003 -43.56592062 2.08943928 -34.25 -2.75 C-23.06674721 -8.14802629 -10.41830242 -6.14412707 0 0 Z " fill="#03183A" transform="translate(549.4375,793.4375)"/>
<path d="M0 0 C2.90996544 1.86185708 5.42868293 3.85736586 7 7 C7.58251246 11.8265318 7.58672679 14.76772872 4.6875 18.75 C0.86642307 23.34977981 -3.23851609 27.72056747 -7.3203125 32.08984375 C-9.56523746 34.52784534 -11.69884967 37.0120286 -13.8125 39.5625 C-16.56997304 42.70641226 -18.91707189 44.72408497 -23 46 C-28.29885917 45.90703756 -31.25507094 44.74492906 -35 41 C-37.53193825 37.50351384 -37.49991189 34.21354303 -37 30 C-34.5446046 25.24140312 -30.75644086 21.74545712 -27 18 C-25.12361817 16.02017447 -23.2788129 14.01241965 -21.4375 12 C-20.96892578 11.49210938 -20.50035156 10.98421875 -20.01757812 10.4609375 C-17.85620858 8.10307981 -15.78357971 5.72504611 -13.8046875 3.2109375 C-9.91142289 -1.558733 -5.70825961 -1.50217358 0 0 Z " fill="#50E894" transform="translate(763,696)"/>
<path d="M0 0 C2.6875 2.0625 2.6875 2.0625 5 5 C6.07357502 6.05172108 7.15786174 7.09256861 8.25 8.125 C12.88779617 12.76279617 16.93057791 17.86568241 21 23 C21.55558594 23.65355469 22.11117187 24.30710937 22.68359375 24.98046875 C25.09184527 27.96178862 26.32363581 30.33669719 26.5 34.125 C25.84720637 39.18415066 24.71177329 41.62107152 20.75 44.8125 C17.23330403 46.33107326 14.80039173 46.40718483 11 46 C6.6008658 43.88640946 3.87544472 40.8017781 0.875 37.0625 C-3.44300207 31.80855793 -7.90687248 26.74374492 -12.55908203 21.78344727 C-16.59710721 17.45124652 -17.34527237 15.08490232 -17.2890625 9.2578125 C-16.86180676 5.92059878 -15.40534301 4.26789483 -13 2 C-8.75783183 -0.82811212 -4.98092939 -0.76999875 0 0 Z " fill="#52EA95" transform="translate(743,279)"/>
<path d="M0 0 C0.85207031 -0.03738281 1.70414063 -0.07476562 2.58203125 -0.11328125 C6.084255 0.45904617 7.57592309 1.93700782 10.1875 4.3125 C11.80908203 6.7668457 11.80908203 6.7668457 13.1953125 9.48828125 C13.70707031 10.48150391 14.21882812 11.47472656 14.74609375 12.49804688 C15.26300781 13.52994141 15.77992188 14.56183594 16.3125 15.625 C16.83714844 16.64529297 17.36179687 17.66558594 17.90234375 18.71679688 C25.9476327 34.47130574 25.9476327 34.47130574 25.1875 41.3125 C23.39468739 45.46427657 21.37209301 47.58408115 17.1875 49.3125 C12.8146913 49.96444602 9.57528627 50.12222241 5.68359375 47.8515625 C2.28960708 44.39915039 0.6772693 40.64755773 -1.25 36.25 C-2.02565977 34.53250247 -2.80429624 32.8163461 -3.5859375 31.1015625 C-3.96202148 30.2755957 -4.33810547 29.44962891 -4.72558594 28.59863281 C-6.11557795 25.67502877 -7.72170138 22.90661616 -9.375 20.125 C-11.95812197 15.46383578 -12.7993651 12.60568554 -11.8125 7.3125 C-8.78269767 2.22953492 -5.84376042 0.16646394 0 0 Z " fill="#51E895" transform="translate(782.8125,337.6875)"/>
<path d="M0 0 C1.95133933 1.10734795 3.81061746 2.29777329 5.67260742 3.54956055 C6.35532715 3.99307861 7.03804687 4.43659668 7.74145508 4.89355469 C12.76318379 8.19544221 17.6798157 11.65040782 22.54760742 15.17456055 C23.50183594 15.86449097 23.50183594 15.86449097 24.4753418 16.56835938 C30.81586511 21.26558989 30.81586511 21.26558989 31.54370117 25.2878418 C31.668762 29.54726658 31.5696094 32.35996079 28.79760742 35.73706055 C25.05540521 39.30106265 22.72122445 39.71105852 17.69116211 39.64770508 C12.96057784 38.87639423 9.5537758 36.00120512 5.79760742 33.17456055 C4.13588238 31.97650856 2.47312668 30.77988479 0.80932617 29.5847168 C0.01574707 29.00608887 -0.77783203 28.42746094 -1.59545898 27.83129883 C-5.24436833 25.22493501 -9.05312278 22.91704205 -12.89379883 20.60424805 C-14.82739258 19.23706055 -14.82739258 19.23706055 -16.82739258 16.23706055 C-17.52660143 11.44016263 -17.54221343 7.46246772 -15.07739258 3.23706055 C-10.62965996 -0.71647956 -5.91555428 -2.46975379 0 0 Z " fill="#51EA95" transform="translate(684.827392578125,232.762939453125)"/>
<path d="M0 0 C4.54277658 1.9016274 6.87347827 4.58337794 9 9 C9.57359333 13.03721458 9.16242007 16.39629082 6.734375 19.74609375 C-0.14653784 26.2085727 -8.9811941 31.06854546 -17 36 C-17.96160034 36.59470093 -17.96160034 36.59470093 -18.94262695 37.20141602 C-23.89269925 40.16327418 -26.35482181 40.80645403 -32 40 C-35.01355268 38.23231001 -37.4128243 36.1743514 -39 33 C-39.2734375 30.79296875 -39.2734375 30.79296875 -39.375 28.1875 C-39.42398438 27.33542969 -39.47296875 26.48335937 -39.5234375 25.60546875 C-38.65817902 21.2985478 -35.78091954 19.23350369 -32.26611328 16.79907227 C-30.32314712 15.5573518 -28.35668465 14.36638453 -26.375 13.1875 C-21.3357428 10.1417382 -16.57879267 6.99919941 -11.9375 3.375 C-7.83234379 0.32844479 -5.23917782 -1.15261912 0 0 Z " fill="#53E997" transform="translate(708,746)"/>
<path d="M0 0 C1.98246956 0.76921391 3.97186752 1.5178926 5.96289062 2.26464844 C7.23417992 2.75043605 8.50503026 3.23737429 9.77539062 3.72558594 C10.91733887 4.16435059 12.05928711 4.60311523 13.23583984 5.05517578 C16.41155386 6.53703106 18.44592571 7.79474025 19.78320312 11.07714844 C20.97446635 19.89249628 20.97446635 19.89249628 18.40820312 24.26464844 C15.23840067 27.17743988 12.80022272 28.2019949 8.54101562 28.67089844 C3.70955624 28.27649359 -0.22790155 26.47464974 -4.65429688 24.57714844 C-10.63031636 22.05058974 -16.50715614 19.79911594 -22.77807617 18.10620117 C-26.25239668 16.93532843 -27.87109208 15.406662 -29.90429688 12.38964844 C-31.2166613 7.92430785 -31.2399148 4.4557289 -29.84179688 0.01464844 C-22.27617812 -10.23554471 -9.63894749 -3.74847958 0 0 Z " fill="#50E894" transform="translate(631.904296875,206.6103515625)"/>
<path d="M0 0 C4.04059526 2.09512347 6.34038334 3.76807502 8 8 C8.4947003 14.97964911 5.5865715 20.58867535 2.25 26.5 C1.81945312 27.29019531 1.38890625 28.08039062 0.9453125 28.89453125 C0.07983918 30.47777735 -0.79355735 32.0567195 -1.67504883 33.63110352 C-2.58100841 35.25087979 -3.47620992 36.87670767 -4.36206055 38.50756836 C-4.7981665 39.30815674 -5.23427246 40.10874512 -5.68359375 40.93359375 C-6.26838501 42.01338501 -6.26838501 42.01338501 -6.86499023 43.11499023 C-8.55573086 45.92295073 -10.10610048 47.45210026 -13 49 C-17.88980666 49.62092783 -19.95089249 49.55424547 -24.3125 47.25 C-29.81105019 42.64656263 -29.81105019 42.64656263 -30.35546875 37.90234375 C-29.89539441 32.85163756 -28.01326791 29.66363741 -25.4375 25.375 C-24.51444643 23.78844552 -23.59257931 22.2012002 -22.671875 20.61328125 C-22.21619141 19.83549316 -21.76050781 19.05770508 -21.29101562 18.25634766 C-20.11972065 16.20923946 -19.0190914 14.1463681 -17.953125 12.04296875 C-17.37046875 10.89441406 -16.7878125 9.74585938 -16.1875 8.5625 C-15.68605469 7.55316406 -15.18460938 6.54382813 -14.66796875 5.50390625 C-11.11478324 0.16996734 -6.16680738 -1.09819857 0 0 Z " fill="#52E896" transform="translate(801,634)"/>
<path d="M0 0 C3.50252011 2.04313673 5.77361702 4.09787233 7 8 C7.44171577 11.97544196 7.31380843 14.34837593 5.5703125 17.96875 C2.08758285 22.07604211 -1.51859488 23.32645299 -6.5 25.125 C-7.39549561 25.46337891 -8.29099121 25.80175781 -9.21362305 26.15039062 C-11.80212212 27.12063962 -14.39940332 28.06276351 -17 29 C-18.23363281 29.46148438 -19.46726562 29.92296875 -20.73828125 30.3984375 C-32.47291104 34.60322225 -32.47291104 34.60322225 -38.75 31.75 C-41.15346513 29.88063823 -42.6052475 28.71609698 -44 26 C-44.53290346 20.4933309 -44.33893903 16.63143156 -41 12 C-38.57447496 10.65822019 -36.60510464 9.83141637 -34 9 C-32.10405926 8.37532588 -30.20823601 7.75029513 -28.3125 7.125 C-27.27996094 6.79242187 -26.24742187 6.45984375 -25.18359375 6.1171875 C-21.98320889 4.99410766 -18.96018491 3.65560548 -15.875 2.25 C-10.51325312 -0.01978276 -5.78800671 -1.15760134 0 0 Z " fill="#50E994" transform="translate(646,783)"/>
<path d="M0 0 C6.25398932 5.13456224 7.24299423 11.4387004 9 19 C9.15774902 19.66016113 9.31549805 20.32032227 9.47802734 21.00048828 C12.70972334 34.74105685 12.70972334 34.74105685 11 41 C7.53125107 44.03515531 4.51672534 44.40956678 0 44.375 C-1.010625 44.38273437 -2.02125 44.39046875 -3.0625 44.3984375 C-6.53062849 43.92802645 -8.21825184 43.12169117 -11 41 C-12.21020508 38.18432617 -12.21020508 38.18432617 -13.01953125 34.79296875 C-13.31923828 33.56642578 -13.61894531 32.33988281 -13.92773438 31.07617188 C-14.36569336 29.1512793 -14.36569336 29.1512793 -14.8125 27.1875 C-15.12380859 25.91583984 -15.43511719 24.64417969 -15.75585938 23.33398438 C-18.86769428 10.27795617 -18.86769428 10.27795617 -17.4375 4.875 C-13.06335261 -0.83040963 -6.64482823 -2.54757549 0 0 Z " fill="#53E795" transform="translate(818,406)"/>
<path d="M0 0 C1.56992005 0.12448953 3.13391335 0.32543613 4.69140625 0.55859375 C5.63564453 0.69716797 6.57988281 0.83574219 7.55273438 0.97851562 C8.54595703 1.12998047 9.53917969 1.28144531 10.5625 1.4375 C12.05813477 1.65889648 12.05813477 1.65889648 13.58398438 1.88476562 C16.05677439 2.25154309 18.52867321 2.62351004 21 3 C22.28477059 7.21659393 21.37926572 10.47077678 20.25 14.625 C20.06244141 15.3355957 19.87488281 16.04619141 19.68164062 16.77832031 C19.30360018 18.19952014 18.9208716 19.61948215 18.53320312 21.03808594 C18.07288767 22.73181075 17.63579739 24.43181613 17.203125 26.1328125 C15.96273013 30.74983785 15.0011246 34.03142368 11 37 C7.53472176 38.73263912 3.78892972 38.4719774 0 38 C-3.02906816 36.25989701 -4.4947672 34.78081432 -6.375 31.875 C-8.56481474 21.80185221 -3.99988867 10.55707776 -1 1 C-0.67 0.67 -0.34 0.34 0 0 Z " fill="#54E997" transform="translate(808,578)"/>
<path d="M0 0 C6.02900687 0.51241107 12.02004643 1.069785 18 2 C18 2.33 18 2.66 18 3 C15.03 3 12.06 3 9 3 C8.67 3.66 8.34 4.32 8 5 C4.04 5 0.08 5 -4 5 C-4.66 6.65 -5.32 8.3 -6 10 C-6.33 10 -6.66 10 -7 10 C-7.125 7.625 -7.125 7.625 -7 5 C-4.64046906 2.64046906 -3.22104383 2.50858587 0 2 C0 1.34 0 0.68 0 0 Z " fill="#021127" transform="translate(812,574)"/>
<path d="M0 0 C0.66 0.33 1.32 0.66 2 1 C-2.37931034 6.63054187 -2.37931034 6.63054187 -5.625 8.5625 C-8.52544377 10.31803175 -9.33222271 12.08138975 -11 15 C-14.13513693 18.63015855 -16.1371148 20.58318127 -21 21 C-14.59008428 13.30810113 -7.69189887 6.40991572 0 0 Z " fill="#303950" transform="translate(69,44)"/>
<path d="M0 0 C0.99 0.33 1.98 0.66 3 1 C1.625 3 1.625 3 0 5 C-0.66 5 -1.32 5 -2 5 C-2.2475 5.556875 -2.495 6.11375 -2.75 6.6875 C-4.21606015 9.39971127 -6.02989471 11.63587365 -8 14 C-8.99 13.67 -9.98 13.34 -11 13 C-7.92877136 7.96318503 -4.27083334 4.05489233 0 0 Z " fill="#57EA9E" transform="translate(743,707)"/>
<path d="M0 0 C-1.423125 0.37125 -1.423125 0.37125 -2.875 0.75 C-6.55926095 2.22370438 -6.35933254 2.67041015 -8 6 C-9.9453125 7.921875 -9.9453125 7.921875 -12.125 9.75 C-13.21167969 10.67039062 -13.21167969 10.67039062 -14.3203125 11.609375 C-14.87460937 12.06828125 -15.42890625 12.5271875 -16 13 C-16 8.94487546 -14.41494762 7.65344272 -11.7890625 4.72265625 C-8.33292172 1.39480017 -4.86849387 -1.62283129 0 0 Z " fill="#021829" transform="translate(815,484)"/>
<path d="M0 0 C6.32231405 -0.49586777 6.32231405 -0.49586777 9.5625 1.875 C10.366875 2.57625 11.17125 3.2775 12 4 C15.17921787 5.25556887 15.17921787 5.25556887 18 6 C14.29632825 7.36589313 12.0677329 6.6131895 8.4375 5.25 C7.48746094 4.90453125 6.53742187 4.5590625 5.55859375 4.203125 C3.11951251 3.05619825 1.73215268 2.02959304 0 0 Z " fill="#67ECA8" transform="translate(799,567)"/>
<path d="M0 0 C2.67438936 2.38335287 4.15158012 4.87036148 5.75 8.0625 C6.19859375 8.94035156 6.6471875 9.81820312 7.109375 10.72265625 C7.40328125 11.47417969 7.6971875 12.22570312 8 13 C7.67 13.66 7.34 14.32 7 15 C4.69145075 12.87666387 3.21587424 10.86387158 1.8125 8.0625 C1.29623047 7.05896484 1.29623047 7.05896484 0.76953125 6.03515625 C0 4 0 4 0 0 Z " fill="#54596B" transform="translate(1000,99)"/>
<path d="M0 0 C1.32 0.33 2.64 0.66 4 1 C4 1.99 4 2.98 4 4 C4.66 4 5.32 4 6 4 C7.7265625 5.96875 7.7265625 5.96875 9.625 8.5 C10.25664063 9.3353125 10.88828125 10.170625 11.5390625 11.03125 C12.26222656 12.00578125 12.26222656 12.00578125 13 13 C12.67 13.66 12.34 14.32 12 15 C9.99390948 12.88046983 7.99506397 10.75486559 6 8.625 C5.42765625 8.02171875 4.8553125 7.4184375 4.265625 6.796875 C3.72421875 6.21679688 3.1828125 5.63671875 2.625 5.0390625 C1.87089844 4.23782959 1.87089844 4.23782959 1.1015625 3.42041016 C0 2 0 2 0 0 Z " fill="#051F2F" transform="translate(747,282)"/>
<path d="M0 0 C3.47901564 2.68833027 4.10668406 5.80828675 5 10 C5.14598431 12.693646 5.09478095 15.29874304 5 18 C2.92297641 14.88446461 2.25093145 12.60989929 1.375 9 C0.98441406 7.4221875 0.98441406 7.4221875 0.5859375 5.8125 C0 3 0 3 0 0 Z " fill="#60ED9D" transform="translate(802,423)"/>
<path d="M0 0 C0.66 0.99 1.32 1.98 2 3 C-3 9.57142857 -3 9.57142857 -8 11 C-5.71461395 6.91036181 -3.04293074 3.53637896 0 0 Z " fill="#353D53" transform="translate(47,65)"/>
<path d="M0 0 C0.66 0.33 1.32 0.66 2 1 C1.67 1.99 1.34 2.98 1 4 C0.34 4 -0.32 4 -1 4 C-1.28875 4.94875 -1.5775 5.8975 -1.875 6.875 C-3 10 -3 10 -5 12 C-4.50769231 4.61538462 -4.50769231 4.61538462 -1.9375 1.5 C-1.298125 1.005 -0.65875 0.51 0 0 Z " fill="#5AEBA0" transform="translate(606,203)"/>
<path d="M0 0 C0.99 0.33 1.98 0.66 3 1 C0.03 4.3 -2.94 7.6 -6 11 C-6.33 10.34 -6.66 9.68 -7 9 C-6.02180976 7.68677212 -5.0424189 6.37443848 -4.0625 5.0625 C-3.51722656 4.33160156 -2.97195313 3.60070312 -2.41015625 2.84765625 C-1 1 -1 1 0 0 Z " fill="#59F09D" transform="translate(486,160)"/>
<path d="M0 0 C0.66 0.33 1.32 0.66 2 1 C-1.06544056 4.94128072 -3.49152687 7.6879625 -8 10 C-8.763125 10.391875 -9.52625 10.78375 -10.3125 11.1875 C-10.869375 11.455625 -11.42625 11.72375 -12 12 C-8.39424999 7.41086363 -4.52615993 3.67832017 0 0 Z " fill="#4D5163" transform="translate(69,44)"/>
<path d="M0 0 C4.38554217 6.57831325 4.38554217 6.57831325 3.625 11.75 C3.51414062 12.54921875 3.40328125 13.3484375 3.2890625 14.171875 C3.19367187 14.77515625 3.09828125 15.3784375 3 16 C2.67 16 2.34 16 2 16 C0.80911014 10.61972975 -0.2919519 5.54708616 0 0 Z " fill="#082935" transform="translate(885,493)"/>
<path d="M0 0 C0.99 0 1.98 0 3 0 C1.74194623 4.50802601 0.09592835 7.4912812 -3 11 C-2.67 8.69 -2.34 6.38 -2 4 C-1.01 3.67 -0.02 3.34 1 3 C0.67 2.01 0.34 1.02 0 0 Z " fill="#575E6F" transform="translate(1004,914)"/>
<path d="M0 0 C2.0625 0.4375 2.0625 0.4375 4 1 C2.68 3.31 1.36 5.62 0 8 C-0.66 7.67 -1.32 7.34 -2 7 C-1.125 1.125 -1.125 1.125 0 0 Z " fill="#46D98F" transform="translate(808,578)"/>
<path d="M0 0 C0.66 0.66 1.32 1.32 2 2 C-1.3 4.31 -4.6 6.62 -8 9 C-8 8.01 -8 7.02 -8 6 C-6.25 4.39453125 -6.25 4.39453125 -4 2.8125 C-3.2575 2.28269531 -2.515 1.75289063 -1.75 1.20703125 C-1.1725 0.80871094 -0.595 0.41039062 0 0 Z " fill="#0F152A" transform="translate(501,441)"/>
<path d="M0 0 C0 0.99 0 1.98 0 3 C-5.34883721 8 -5.34883721 8 -8 8 C-6.88333826 4.65001479 -6.25305075 4.20659778 -3.4375 2.3125 C-2.79683594 1.87550781 -2.15617188 1.43851563 -1.49609375 0.98828125 C-1.00238281 0.66214844 -0.50867188 0.33601562 0 0 Z " fill="#5DEFA0" transform="translate(853,541)"/>
<path d="M0 0 C0.99 0.33 1.98 0.66 3 1 C-0.01887244 4.48331435 -2.56909529 5.79157144 -7 7 C-4.78071806 4.09197539 -3.07030857 2.04687238 0 0 Z " fill="#0D1429" transform="translate(477,459)"/>
<path d="M0 0 C4 5 4 5 8 10 C7.01 10 6.02 10 5 10 C0 4.88372093 0 4.88372093 0 0 Z " fill="#53D291" transform="translate(796,532)"/>
<path d="M0 0 C0.99 0.66 1.98 1.32 3 2 C0.25 4.0625 0.25 4.0625 -3 6 C-4.32 5.67 -5.64 5.34 -7 5 C-4.69 3.35 -2.38 1.7 0 0 Z " fill="#111B30" transform="translate(388,526)"/>
<path d="M0 0 C0.33 0.99 0.66 1.98 1 3 C-1.97 4.65 -4.94 6.3 -8 8 C-6.88333826 4.65001479 -6.25305075 4.20659778 -3.4375 2.3125 C-2.79683594 1.87550781 -2.15617188 1.43851562 -1.49609375 0.98828125 C-1.00238281 0.66214844 -0.50867188 0.33601563 0 0 Z " fill="#121A30" transform="translate(550,404)"/>
<path d="M0 0 C0.33 0 0.66 0 1 0 C1.36923077 7.50769231 1.36923077 7.50769231 -0.5 10 C-0.995 10.33 -1.49 10.66 -2 11 C-1.125 3.375 -1.125 3.375 0 0 Z " fill="#082931" transform="translate(830,582)"/>
<path d="M0 0 C0.66 0.33 1.32 0.66 2 1 C0.90716423 2.03295436 -0.19970579 3.05107835 -1.3125 4.0625 C-1.92738281 4.63097656 -2.54226563 5.19945312 -3.17578125 5.78515625 C-3.77777344 6.18605469 -4.37976563 6.58695313 -5 7 C-5.99 6.67 -6.98 6.34 -8 6 C-5.36 4.02 -2.72 2.04 0 0 Z " fill="#0D1427" transform="translate(366,543)"/>
<path d="M0 0 C1 3 1 3 0.22265625 4.82421875 C-0.8515625 6.54947917 -1.92578125 8.27473958 -3 10 C-4 7 -4 7 -2.625 3.875 C-1 1 -1 1 0 0 Z " fill="#041B2A" transform="translate(860,527)"/>
<path d="M0 0 C5.53846154 -0.36923077 5.53846154 -0.36923077 7.875 1.5 C8.24625 1.995 8.6175 2.49 9 3 C8 4 8 4 5.4375 4.0625 C4.2309375 4.0315625 4.2309375 4.0315625 3 4 C3.33 3.34 3.66 2.68 4 2 C2.68 1.34 1.36 0.68 0 0 Z " fill="#0A2D48" transform="translate(814,450)"/>
</svg>
